<?xml version="1.0" encoding="utf-8"?>
<!-- Generator: Adobe Illustrator 19.2.1, SVG Export Plug-In . SVG Version: 6.00 Build 0)  -->
<svg version="1.1" id="Camada_1" xmlns="http://www.w3.org/2000/svg" xmlns:xlink="http://www.w3.org/1999/xlink" x="0px" y="0px"
	 viewBox="0 0 215.8 73.3" style="enable-background:new 0 0 215.8 73.3;" xml:space="preserve">
<style type="text/css">
	.st0{fill:#0071C5;}
</style>
<g>
	<path class="st0" d="M50.7,61.7c-19.7,1.8-40.3-1-43.2-16.5c-1.4-7.6,2.1-15.7,6.6-20.7v-2.7C5.9,29.1,1.4,38.3,4,49.2
		C7.3,63.1,24.9,71,51.9,68.3c10.7-1,24.6-4.5,34.3-9.8V51C77.4,56.2,62.8,60.6,50.7,61.7z M102.6,21.7C98-1.1,53.6-2.6,25,14.8v1.9
		C53.6,2.1,94.1,2.1,97.8,23.2c1.2,7-2.7,14.2-9.7,18.4V47C96.5,43.9,105.2,33.9,102.6,21.7z M84.6,46.8c-3.9-0.4-5.2-2.7-5.2-5.4
		v-23h5.2V46.8z M23,47.3c-3.9-0.4-5.2-2.7-5.2-5.4l0-15.1H23V47.3z M23,19.1V24h-5.2v-4.9H23z M54,47c-4.2,0-6-2.9-6-5.8v-20h5.1
		v5.5H57v4.1h-3.9v10c0,1.2,0.6,1.8,1.8,1.8H57V47H54 M63.4,38.5c0,2.6,1.6,4.6,4.5,4.6c2.3,0,3.4-0.6,4.7-1.9l3.2,3
		c-2,2-4.2,3.2-7.9,3.2c-4.9,0-9.6-2.7-9.6-10.5c0-6.7,4.1-10.4,9.5-10.4c5.5,0,8.6,4.4,8.6,10.2v1.8H63.4 M67.6,30.7
		c-1.8,0-3.1,0.9-3.7,2.1c-0.3,0.7-0.5,1.3-0.5,2.2h7.9C71.2,32.8,70.2,30.7,67.6,30.7z M32.7,30.9V47h-5.1V26.8l10.6,0
		c4.5,0,6,3.2,6,6.1V47H39V32.9c0-1.2-0.6-2-2.1-2H32.7z"/>
	<path class="st0" d="M90.1,22.5c-1.1,0-2.1-0.9-2.1-2.1c0-1.1,0.9-2.1,2.1-2.1c1.1,0,2.1,0.9,2.1,2.1
		C92.2,21.6,91.3,22.5,90.1,22.5z M90.1,18.7c-0.9,0-1.7,0.8-1.7,1.7c0,0.9,0.8,1.7,1.7,1.7c0.9,0,1.7-0.8,1.7-1.7
		C91.8,19.5,91.1,18.7,90.1,18.7z M91,21.7h-0.4c0,0-0.1,0-0.1-0.1l-0.5-0.9c0,0-0.1,0-0.1,0c0,0-0.1,0-0.1,0c0,0-0.1,0-0.1,0v0.9
		c0,0,0,0.1-0.1,0.1h-0.3c-0.1,0-0.1-0.1-0.1-0.1v-2.2c0-0.1,0-0.2,0.2-0.2c0.1,0,0.4,0,0.6,0c0.6,0,1,0.2,1,0.8v0
		c0,0.4-0.2,0.6-0.5,0.7l0.5,0.9C91.1,21.5,91.1,21.6,91,21.7C91.1,21.6,91.1,21.7,91,21.7z M90.5,19.9c0-0.2-0.1-0.3-0.5-0.3
		c0,0-0.2,0-0.2,0c0,0-0.1,0-0.1,0v0.7c0,0,0.3,0,0.3,0C90.4,20.3,90.5,20.2,90.5,19.9L90.5,19.9z"/>
</g>
<g>
	<path class="st0" d="M120.1,30.2c-1.1,0-2.1,0.2-2.8,0.6c-0.7,0.4-1.1,1.1-1.1,2.1c0,0.6,0.2,1.1,0.5,1.5c0.3,0.4,1,0.8,1.9,1.1
		l3.2,0.9c0.6,0.2,1.1,0.4,1.6,0.6c0.5,0.2,0.9,0.5,1.3,0.9c0.4,0.4,0.6,0.8,0.8,1.3c0.2,0.5,0.3,1,0.3,1.7c0,0.8-0.1,1.5-0.4,2.1
		c-0.3,0.6-0.7,1.2-1.2,1.6c-0.5,0.5-1.2,0.8-2,1.1c-0.8,0.3-1.7,0.4-2.7,0.4c-1.2,0-2.3-0.2-3.4-0.5c-1.1-0.4-2-0.9-2.8-1.6
		l1.1-1.7c0.7,0.6,1.5,1,2.3,1.3c0.8,0.3,1.7,0.5,2.6,0.5c1.3,0,2.3-0.2,3-0.7c0.7-0.5,1.1-1.2,1.1-2.2c0-0.7-0.2-1.3-0.6-1.7
		c-0.4-0.4-1.1-0.7-1.9-0.9l-3.2-0.9c-1.3-0.3-2.3-0.9-2.9-1.6c-0.7-0.7-1-1.7-1-2.8c0-0.8,0.2-1.5,0.5-2.1c0.3-0.6,0.7-1.1,1.3-1.6
		c0.5-0.4,1.2-0.7,1.9-1c0.7-0.2,1.6-0.3,2.5-0.3c1,0,2,0.1,3,0.4c1,0.3,1.8,0.7,2.6,1.3l-1,1.6C123.2,30.6,121.8,30.2,120.1,30.2z"
		/>
	<path class="st0" d="M140.4,39.5c0,1-0.2,1.9-0.5,2.7c-0.3,0.8-0.7,1.5-1.2,2.1c-0.5,0.6-1.2,1-1.9,1.3c-0.8,0.3-1.6,0.5-2.5,0.5
		c-0.9,0-1.8-0.2-2.5-0.5c-0.8-0.3-1.4-0.8-1.9-1.3c-0.5-0.6-0.9-1.3-1.2-2.1c-0.3-0.8-0.4-1.7-0.4-2.7c0-1,0.2-1.9,0.4-2.7
		c0.3-0.8,0.7-1.5,1.2-2.1c0.5-0.6,1.2-1,1.9-1.3c0.8-0.3,1.6-0.5,2.5-0.5c0.9,0,1.7,0.2,2.5,0.5c0.8,0.3,1.4,0.8,1.9,1.3
		c0.5,0.6,0.9,1.3,1.2,2.1C140.2,37.6,140.4,38.5,140.4,39.5z M138.1,39.5c0-1.5-0.3-2.6-1-3.4c-0.7-0.8-1.6-1.2-2.8-1.2
		c-1.2,0-2.2,0.4-2.8,1.2c-0.7,0.8-1,1.9-1,3.4c0,1.5,0.3,2.6,1,3.4c0.7,0.8,1.6,1.2,2.8,1.2c1.2,0,2.2-0.4,2.8-1.2
		C137.7,42.1,138.1,40.9,138.1,39.5z"/>
	<path class="st0" d="M140.4,39.5c0,1-0.2,1.9-0.5,2.7c-0.3,0.8-0.7,1.5-1.2,2.1c-0.5,0.6-1.2,1-1.9,1.3c-0.8,0.3-1.6,0.5-2.5,0.5
		c-0.9,0-1.8-0.2-2.5-0.5c-0.8-0.3-1.4-0.8-1.9-1.3c-0.5-0.6-0.9-1.3-1.2-2.1c-0.3-0.8-0.4-1.7-0.4-2.7c0-1,0.2-1.9,0.4-2.7
		c0.3-0.8,0.7-1.5,1.2-2.1c0.5-0.6,1.2-1,1.9-1.3c0.8-0.3,1.6-0.5,2.5-0.5c0.9,0,1.7,0.2,2.5,0.5c0.8,0.3,1.4,0.8,1.9,1.3
		c0.5,0.6,0.9,1.3,1.2,2.1C140.2,37.6,140.4,38.5,140.4,39.5z M138.1,39.5c0-1.5-0.3-2.6-1-3.4c-0.7-0.8-1.6-1.2-2.8-1.2
		c-1.2,0-2.2,0.4-2.8,1.2c-0.7,0.8-1,1.9-1,3.4c0,1.5,0.3,2.6,1,3.4c0.7,0.8,1.6,1.2,2.8,1.2c1.2,0,2.2-0.4,2.8-1.2
		C137.7,42.1,138.1,40.9,138.1,39.5z"/>
	<path class="st0" d="M149.8,33.3l0,1.8l-3.4,0l0,10.6h-2.2l0-10.6l-2.1,0v-1.8l2.1,0v-1.3c0-1.3,0.4-2.4,1.1-3.1
		c0.8-0.7,1.8-1.1,3.1-1.1c0.3,0,0.6,0,0.8,0c0.2,0,0.4,0.1,0.6,0.1v1.7h-0.4c-0.5,0-0.9,0-1.3,0.1c-0.4,0.1-0.7,0.2-1,0.3
		c-0.3,0.2-0.5,0.4-0.6,0.7c-0.1,0.3-0.2,0.7-0.2,1.3v1.2L149.8,33.3z"/>
	<path class="st0" d="M158.5,45.7c-0.2,0-0.4,0.1-0.6,0.1c-0.2,0-0.5,0-0.7,0c-1.4,0-2.4-0.3-3-1c-0.6-0.7-0.9-1.8-0.9-3.3l0-6.5
		l-2.1,0l0-1.8l2.1,0l0-3.1h2.2l0,3.1l3.1,0l0,1.8l-3.1,0l0,6.7c0,0.8,0.2,1.4,0.6,1.7c0.4,0.3,1,0.5,1.9,0.5h0.6L158.5,45.7z"/>
	<path class="st0" d="M172.6,43.4l2.6-10.1l2.2,0l-3.9,12.4h-2.2l-2.9-8.9l-2.9,8.9l-2.2,0l-3.8-12.4l2.3,0l2.7,10l2.9-9.1l2.2,0
		L172.6,43.4z"/>
	<path class="st0" d="M188.9,45.8c-0.7,0-1.1-0.2-1.5-0.5c-0.3-0.3-0.5-0.8-0.5-1.5c-0.3,0.7-0.9,1.2-1.6,1.6
		c-0.7,0.4-1.5,0.6-2.5,0.6c-0.6,0-1.2-0.1-1.7-0.3c-0.5-0.2-0.9-0.5-1.3-0.8c-0.4-0.3-0.6-0.7-0.8-1.2c-0.2-0.5-0.3-1-0.3-1.5
		c0-0.7,0.1-1.3,0.4-1.8c0.3-0.5,0.7-0.9,1.1-1.2c0.5-0.3,1-0.5,1.6-0.7c0.6-0.1,1.3-0.2,1.9-0.2l2.7,0v-0.7c0-0.9-0.2-1.5-0.6-2
		c-0.4-0.5-1.2-0.7-2.3-0.7c-0.7,0-1.3,0.1-1.9,0.3c-0.6,0.2-1.2,0.5-1.7,0.9l-0.9-1.5c0.6-0.5,1.4-0.9,2.2-1.1
		c0.8-0.3,1.7-0.4,2.6-0.4c0.7,0,1.3,0.1,1.9,0.2c0.6,0.2,1.1,0.4,1.5,0.8c0.4,0.4,0.8,0.8,1,1.4c0.3,0.6,0.4,1.3,0.4,2.2l0,5.5
		c0,0.4,0.1,0.6,0.2,0.7c0.1,0.1,0.4,0.2,0.8,0.2l0.3,0v1.5c-0.1,0-0.3,0.1-0.5,0.1C189.3,45.8,189.1,45.8,188.9,45.8z M184,39.9
		c-1,0-1.7,0.2-2.2,0.5c-0.5,0.4-0.8,0.9-0.8,1.7c0,0.6,0.2,1.1,0.6,1.5c0.4,0.4,1,0.5,1.8,0.5c0.5,0,1-0.1,1.4-0.3
		c0.4-0.2,0.8-0.4,1.1-0.7c0.3-0.3,0.5-0.7,0.6-1.1c0.1-0.4,0.2-0.9,0.2-1.4v-0.7L184,39.9z"/>
	<path class="st0" d="M192.7,33.3h1.1c0.7,0,1,0.3,1,0.9v1.2c0.3-0.7,0.9-1.3,1.5-1.7c0.7-0.4,1.4-0.6,2.3-0.6c0.3,0,0.5,0,0.7,0
		c0.2,0,0.3,0.1,0.4,0.1l0,1.8h-0.8c-1.4,0-2.4,0.4-3.1,1.1c-0.7,0.7-1,1.9-1,3.6l0,6h-2.2L192.7,33.3z"/>
	<path class="st0" d="M203,40c0.1,1.3,0.5,2.4,1.2,3.1c0.7,0.7,1.7,1,3.1,1c1.3,0,2.3-0.3,3.2-1l0.9,1.5c-0.6,0.5-1.2,0.9-1.9,1.1
		c-0.7,0.2-1.5,0.3-2.4,0.3c-1,0-1.8-0.1-2.6-0.4c-0.8-0.3-1.4-0.7-2-1.3c-0.5-0.6-1-1.3-1.3-2.1c-0.3-0.8-0.4-1.8-0.4-2.9
		c0-1,0.2-1.9,0.4-2.7c0.3-0.8,0.7-1.5,1.3-2s1.2-1,1.9-1.3c0.7-0.3,1.5-0.4,2.3-0.4c0.8,0,1.6,0.1,2.2,0.4c0.6,0.3,1.2,0.7,1.6,1.2
		c0.4,0.5,0.8,1.1,1,1.8c0.2,0.7,0.3,1.4,0.3,2.3c0,0.5,0,1-0.1,1.5L203,40z M206.8,34.8c-1,0-1.9,0.3-2.5,0.9
		c-0.7,0.6-1.1,1.5-1.2,2.6l6.7,0v-0.2c0-1.1-0.3-1.9-0.8-2.5C208.5,35.1,207.7,34.8,206.8,34.8z"/>
</g>
</svg>
